<svg width="148" height="33" viewBox="0 0 114 20" fill="none" xmlns="http://www.w3.org/2000/svg">
<g clip-path="url(#clip0_3_3159)">
<path d="M21.4193 0C17.771 0 14.8374 2.78337 14.8374 6.82987C14.8374 10.8764 17.7688 13.6344 21.3684 13.6344C24.046 13.6344 26.2508 12.4421 27.4125 9.95677L24.5314 9.02079C23.613 10.5932 22.3635 10.7221 21.3684 10.7221C19.812 10.7221 18.5108 9.58789 18.1789 7.73232H27.8743V6.57277C27.746 2.65519 24.8124 0 21.4193 0ZM18.2851 5.33572C18.6893 3.73724 20.1439 2.96371 21.4193 2.96371C22.7714 2.96371 23.9958 3.68507 24.4296 5.33497L18.2851 5.33572Z" fill="#191C3C"/>
<path d="M35.8326 0.0774994C32.0316 0.0774994 28.8937 2.78336 28.8937 6.82986C28.8937 10.8764 32.0316 13.583 35.8326 13.583C39.5576 13.583 42.6926 10.8764 42.6926 6.82986C42.6926 2.78336 39.5576 0.0774994 35.8326 0.0774994ZM35.8326 10.6707C33.9959 10.6707 32.1592 9.22721 32.1592 6.82986C32.1592 4.43252 33.9959 2.98979 35.8326 2.98979C37.5933 2.98979 39.43 4.43326 39.43 6.82986C39.43 9.22647 37.5933 10.6707 35.8326 10.6707Z" fill="#191C3C"/>
<path d="M51.2919 0C49.5577 0 48.154 0.515687 47.0829 1.4159V0.386765H43.7149V17.6295H47.0829V12.2423C48.154 13.1195 49.5577 13.6344 51.2919 13.6344C54.5323 13.6344 57.5425 10.8771 57.5425 6.82987C57.5425 2.78262 54.5323 0 51.2919 0ZM50.7018 10.6707C48.8901 10.6707 47.0793 9.20113 47.0793 6.82987C47.0793 4.4586 48.8968 2.96371 50.7054 2.96371C52.7465 2.96371 54.277 4.4586 54.277 6.82912C54.277 9.19964 52.7465 10.6707 50.7054 10.6707H50.7018Z" fill="#191C3C"/>
<path d="M69.0223 1.4174C67.9505 0.515692 66.5475 0.00149536 64.8126 0.00149536C61.5729 0.00149536 58.5619 2.78486 58.5619 6.83136C58.5619 10.8779 61.5729 13.6359 64.8126 13.6359C66.5475 13.6359 67.9505 13.121 69.0223 12.2438V13.2476H72.3895V0.38677H69.0223V1.4174ZM65.399 10.6707C63.3587 10.6707 61.8274 9.20114 61.8274 6.82987C61.8274 4.45861 63.3587 2.96371 65.399 2.96371C67.2106 2.96371 69.0223 4.45861 69.0223 6.82913C69.0223 9.19965 67.2106 10.6707 65.399 10.6707Z" fill="#191C3C"/>
<path d="M95.377 0.0774994C91.5753 0.0774994 88.4374 2.78336 88.4374 6.82986C88.4374 10.8764 91.5753 13.583 95.377 13.583C99.1013 13.583 102.237 10.8764 102.237 6.82986C102.237 2.78336 99.1013 0.0774994 95.377 0.0774994ZM95.377 10.6707C93.5404 10.6707 91.7029 9.22721 91.7029 6.82986C91.7029 4.43252 93.5404 2.98979 95.377 2.98979C97.137 2.98979 98.9737 4.43326 98.9737 6.82986C98.9737 9.22647 97.1378 10.6707 95.377 10.6707Z" fill="#191C3C"/>
<path d="M110.658 5.69641L107.622 5.02571C106.627 4.79395 106.474 4.35502 106.474 3.94367C106.474 3.3475 106.857 2.67681 108.209 2.67681C109.61 2.67681 110.504 3.42202 110.632 4.45563L113.762 3.45555C113.186 1.40398 111.159 -0.00372314 108.311 -0.00372314C105.096 -0.00372314 103.106 1.7751 103.106 4.2492C103.106 6.10478 104.407 7.41933 106.703 7.90894L109.306 8.44996C110.403 8.68247 110.707 9.14599 110.707 9.61026C110.707 10.3316 109.97 10.8987 108.716 10.8987C107.388 10.8987 106.267 10.4605 106.088 9.14599L102.757 10.2109C103.273 12.6246 105.736 13.6307 108.41 13.6307C111.729 13.6307 113.997 12.1619 113.997 9.32633C114 7.6034 112.903 6.18601 110.658 5.69641Z" fill="#191C3C"/>
<path d="M11.552 1.86228C10.3239 0.726579 8.65461 0.0774994 6.84373 0.0774994C3.0951 0.0774994 0 2.74685 0 6.73746C0 9.00514 0.999488 10.8451 2.54999 12.0121H0.453642V16.2113L12.0772 20V16.7919L3.73536 14.127V12.726C4.71105 13.1747 5.77171 13.4036 6.84373 13.3967C10.5179 13.3967 13.6122 10.7281 13.6122 6.73671C13.6122 5.30069 13.2102 4.03755 12.5264 3.00618H14.5409V0.0774994H11.552V1.86228ZM6.84373 10.4963C5.04539 10.4963 3.24779 9.0804 3.24779 6.73746C3.24779 4.39451 5.04539 2.97861 6.84373 2.97861C8.56684 2.97861 10.3644 4.39451 10.3644 6.73746C10.3644 9.0804 8.56684 10.4963 6.84373 10.4963Z" fill="#191C3C"/>
<path d="M85.3578 1.86228C84.1297 0.726579 82.4604 0.0774994 80.6503 0.0774994C76.9009 0.0774994 73.8065 2.74685 73.8065 6.73746C73.8065 9.00514 74.806 10.8451 76.3565 12.0121H74.2602V16.2113L85.8838 20V16.7919L77.5412 14.127V12.726C78.5168 13.1762 79.5777 13.4066 80.6503 13.4011C84.3237 13.4011 87.4188 10.7325 87.4188 6.74118C87.4188 5.30516 87.0168 4.04203 86.3322 3.01065H88.3474V0.0774994H85.3578V1.86228ZM80.6495 10.4963C78.8519 10.4963 77.0543 9.0804 77.0543 6.73746C77.0543 4.39451 78.8519 2.97861 80.6495 2.97861C82.3726 2.97861 84.171 4.39451 84.171 6.73746C84.171 9.0804 82.3726 10.4963 80.6495 10.4963Z" fill="#191C3C"/>
</g>
<defs>
<clipPath id="clip0_3_3159">
<rect width="114" height="20" fill="white"/>
</clipPath>
</defs>
</svg>
