<svg width="148" height="33" version="1.1" id="Capa_1" xmlns="http://www.w3.org/2000/svg" xmlns:xlink="http://www.w3.org/1999/xlink" x="0px" y="0px" viewBox="0 0 403.53 89.41" style="enable-background:new 0 0 403.53 89.41;" xml:space="preserve">
<g fill="#FFFFFF">
	<path class="st1" d="M68.72,30.37c1.4-5.51,6.4-8.17,10.78-8.17c4.65,0,8.85,2.49,10.34,8.17H68.72z M79.5,11.98
		c-12.54,0-22.62,9.6-22.62,23.55c0,13.95,10.08,23.46,22.44,23.46c9.2,0,16.78-4.12,20.77-12.68l-9.9-3.23
		c-3.16,5.42-7.45,5.86-10.87,5.86c-5.35,0-9.82-3.91-10.96-10.31h33.31v-4C101.24,21.13,91.16,11.98,79.5,11.98" fill="#FFFFFF"></path>
	<path class="st1" d="M129.03,48.76c-6.31,0-12.62-4.98-12.62-13.24c0-8.26,6.31-13.24,12.62-13.24c6.05,0,12.36,4.98,12.36,13.24
		C141.39,43.78,135.08,48.76,129.03,48.76 M129.03,12.24c-13.06,0-23.84,9.33-23.84,23.28c0,13.95,10.78,23.28,23.84,23.28
		c12.8,0,23.58-9.33,23.58-23.28C152.61,21.57,141.83,12.24,129.03,12.24" fill="#FFFFFF"></path>
	<path class="st1" d="M180.14,48.76c-6.22,0-12.45-5.06-12.45-13.24c0-8.17,6.22-13.33,12.45-13.33c7.01,0,12.27,5.15,12.27,13.33
		C192.41,43.7,187.15,48.76,180.14,48.76 M182.15,11.98c-5.96,0-10.78,1.78-14.46,4.89v-3.55h-11.57v59.44h11.57V54.18
		c3.68,3.02,8.5,4.8,14.46,4.8c11.13,0,21.48-9.51,21.48-23.46C203.63,21.57,193.28,11.98,182.15,11.98" fill="#FFFFFF"></path>
	<path class="st1" d="M230.63,48.76c-7.01,0-12.27-5.06-12.27-13.24c0-8.17,5.26-13.33,12.27-13.33c6.22,0,12.45,5.15,12.45,13.33
		C243.08,43.7,236.85,48.76,230.63,48.76 M243.08,16.86c-3.68-3.11-8.5-4.89-14.46-4.89c-11.13,0-21.48,9.6-21.48,23.55
		c0,13.95,10.34,23.46,21.48,23.46c5.96,0,10.78-1.78,14.46-4.8v3.47h11.57V13.31h-11.57V16.86z" fill="#FFFFFF"></path>
	<path class="st1" d="M333.64,48.76c-6.31,0-12.62-4.98-12.62-13.24c0-8.26,6.31-13.24,12.62-13.24c6.05,0,12.36,4.98,12.36,13.24
		C346,43.78,339.69,48.76,333.64,48.76 M333.64,12.24c-13.06,0-23.84,9.33-23.84,23.28c0,13.95,10.78,23.28,23.84,23.28
		c12.8,0,23.58-9.33,23.58-23.28C357.22,21.57,346.44,12.24,333.64,12.24" fill="#FFFFFF"></path>
	<path class="st1" d="M386.15,31.61l-10.43-2.31c-3.42-0.8-3.94-2.31-3.94-3.73c0-2.04,1.31-4.35,5.96-4.35
		c4.82,0,7.89,2.58,8.33,6.13l10.76-3.45c-1.98-7.07-8.95-11.92-18.73-11.92c-11.05,0-17.88,6.13-17.88,14.66
		c0,6.4,4.47,10.93,12.36,12.62l8.94,1.87c3.77,0.8,4.82,2.4,4.82,4c0,2.49-2.54,4.44-6.84,4.44c-4.56,0-8.41-1.51-9.03-6.04
		l-11.45,3.67c1.77,8.32,10.24,11.79,19.42,11.79c11.4,0,19.2-5.06,19.2-14.84C397.63,38.19,393.86,33.3,386.15,31.61" fill="#FFFFFF"></path>
	<path class="st1" d="M29.42,48.16c-6.18,0-12.36-4.87-12.36-12.96s6.18-12.96,12.36-12.96c5.92,0,12.1,4.87,12.1,12.96
		S35.34,48.16,29.42,48.16 M45.59,18.4c-4.22-3.91-9.96-6.15-16.18-6.15c-12.88,0-23.52,9.2-23.52,22.96
		c0,7.82,3.44,14.16,8.76,18.18h-7.2v14.48L47.4,80.92V69.86l-28.67-9.19v-4.84c3.22,1.51,6.85,2.33,10.68,2.33
		c12.62,0,23.26-9.2,23.26-22.96c0-4.95-1.38-9.31-3.73-12.86h6.92v-10.1H45.59V18.4z" fill="#FFFFFF"></path>
	<path class="st1" d="M283.03,48.16c-6.18,0-12.36-4.87-12.36-12.96s6.18-12.96,12.36-12.96c5.92,0,12.1,4.87,12.1,12.96
		S288.95,48.16,283.03,48.16 M299.21,18.4c-4.22-3.91-9.96-6.15-16.18-6.15c-12.88,0-23.52,9.2-23.52,22.96
		c0,7.82,3.44,14.16,8.76,18.18h-7.2v14.48l39.94,13.06V69.86l-28.67-9.19v-4.84c3.22,1.51,6.85,2.33,10.68,2.33
		c12.62,0,23.26-9.2,23.26-22.96c0-4.95-1.38-9.31-3.73-12.86h6.92v-10.1h-10.27V18.4z" fill="#FFFFFF"></path>
</g>
</svg>